<svg 
 xmlns="http://www.w3.org/2000/svg"
 xmlns:xlink="http://www.w3.org/1999/xlink"
 width="27px" height="27px">
<path fill-rule="evenodd"  fill="rgb(75, 93, 112)"
 d="M13.772,26.470 C6.513,26.472 0.570,20.542 0.562,13.288 C0.554,6.0 6.501,0.54 13.790,0.64 C21.48,0.74 26.972,6.13 26.969,13.274 C26.965,20.533 21.30,26.467 13.772,26.470 ZM23.708,18.345 C22.471,18.345 21.316,18.356 20.162,18.338 C19.834,18.332 19.857,18.548 19.813,18.742 C19.441,20.395 18.915,21.991 17.961,23.621 C20.571,22.471 22.416,20.776 23.708,18.345 ZM18.218,10.712 C18.181,10.281 18.21,10.205 17.637,10.212 C16.349,10.233 15.61,10.220 13.772,10.220 C12.463,10.220 11.153,10.234 9.844,10.211 C9.464,10.204 9.349,10.317 9.315,10.698 C9.163,12.407 9.158,14.112 9.316,15.821 C9.349,16.182 9.427,16.327 9.830,16.323 C12.449,16.304 15.68,16.306 17.686,16.322 C18.68,16.325 18.181,16.216 18.215,15.835 C18.367,14.126 18.365,12.421 18.218,10.712 ZM11.852,23.284 C13.98,24.821 14.448,24.815 15.688,23.273 C16.839,21.841 17.380,20.144 17.792,18.367 C15.91,18.367 12.431,18.367 9.735,18.367 C10.152,20.154 10.694,21.855 11.852,23.284 ZM9.564,23.613 C8.605,21.976 8.75,20.361 7.706,18.687 C7.664,18.492 7.650,18.336 7.376,18.339 C6.221,18.353 5.65,18.345 3.821,18.345 C5.122,20.779 6.962,22.482 9.564,23.613 ZM2.907,10.640 C2.492,12.378 2.507,14.108 2.888,15.850 C2.975,16.245 3.152,16.343 3.525,16.321 C4.51,16.291 4.581,16.314 5.109,16.314 C5.679,16.314 6.251,16.294 6.820,16.321 C7.184,16.338 7.346,16.284 7.297,15.851 C7.102,14.125 7.109,12.393 7.295,10.665 C7.335,10.297 7.228,10.204 6.867,10.211 C5.726,10.234 4.584,10.236 3.444,10.210 C3.98,10.203 2.983,10.322 2.907,10.640 ZM9.399,3.1 C6.979,4.34 4.947,5.916 3.849,8.189 C4.989,8.189 6.64,8.171 7.138,8.198 C7.522,8.208 7.677,8.99 7.754,7.711 C8.56,6.193 8.556,4.742 9.300,3.378 C9.358,3.272 9.541,3.171 9.399,3.1 ZM17.718,7.810 C17.506,6.970 17.255,6.143 16.912,5.348 C16.500,4.393 16.10,3.480 15.229,2.767 C14.259,1.882 13.337,1.873 12.350,2.727 C12.159,2.892 11.982,3.79 11.826,3.277 C10.758,4.634 10.211,6.220 9.800,7.871 C9.710,8.234 9.897,8.190 10.116,8.190 C11.321,8.187 12.527,8.189 13.733,8.189 C14.960,8.189 16.187,8.178 17.413,8.196 C17.739,8.200 17.797,8.125 17.718,7.810 ZM17.982,2.938 C18.928,4.569 19.464,6.202 19.837,7.892 C19.868,8.34 19.855,8.189 20.75,8.188 C21.264,8.184 22.453,8.186 23.682,8.186 C22.575,5.907 20.502,3.988 17.982,2.938 ZM24.174,10.215 C22.991,10.226 21.807,10.233 20.624,10.212 C20.275,10.205 20.201,10.315 20.235,10.642 C20.420,12.391 20.419,14.143 20.235,15.892 C20.200,16.219 20.275,16.339 20.624,16.321 C21.193,16.292 21.765,16.314 22.336,16.314 C22.948,16.314 23.561,16.304 24.174,16.318 C24.423,16.324 24.528,16.256 24.594,15.992 C25.47,14.172 25.50,12.361 24.594,10.541 C24.528,10.277 24.423,10.213 24.174,10.215 Z"/>
</svg>
