<svg width="56" height="56" xmlns="http://www.w3.org/2000/svg">
 <title>background</title>

 <title>Layer 1</title>
 <g>
  <title>background</title>
  <rect fill="none" id="canvas_background" height="602" width="802" y="-1" x="-1"/>
 </g>
 <g>
  <title>Layer 1</title>
  <path id="svg_1" d="m-1,-1l582,0l0,402l-582,0l0,-402z" fill="none"/>
  <path id="svg_2" d="m36.985,0l-29.022,0c-0.808,0 -1.463,0.655 -1.463,1.926l0,53.074c0,0.345 0.655,1 1.463,1l40.074,0c0.808,0 1.463,-0.655 1.463,-1l0,-42.022c0,-0.696 -0.093,-0.92 -0.257,-1.085l-11.636,-11.636c-0.165,-0.164 -0.389,-0.257 -0.622,-0.257z" fill="#E9E9E0"/>
  <path id="svg_3" fill="#D9D7CA" d="m37.5,0.151l0,11.849l11.849,0l-11.849,-11.849z"/>
  <path id="svg_4" d="m48.037,56l-40.074,0c-0.808,0 -1.463,-0.655 -1.463,-1.463l0,-15.537l43,0l0,15.537c0,0.808 -0.655,1.463 -1.463,1.463z" fill="#556080"/>
  <path id="svg_5" fill="null" stroke="null" stroke-width="null" stroke-opacity="null" fill-opacity="null" d="m6.074,15.999l-0.064,0.047l0.016,0l0.048,-0.032l0.052,0.052l-0.052,0.052l-0.048,-0.032l-0.016,0l0.064,0.047l0.067,-0.067l-0.067,-0.067zm-0.021,0.088l0.036,-0.021l-0.036,-0.021l0,0.011l-0.055,0l0,0.018l0.055,0l0,0.011l0,0.002z"/>
  <text id="svg_6" fill="#eaeaea" fill-opacity="null" x="26.63059" y="50.76982" font-size="20" font-family="Helvetica, Arial, sans-serif" transform="matrix(0.641, 0, 0, 0.556, 1.087, 23.522)" font-weight="bold">HC</text>
  <path id="svg_7" fill="#7f7f7f" d="m26.187,15.197c-4.937,0 -8.939,3.581 -8.939,7.998s4.002,7.998 8.939,7.998s8.939,-3.581 8.939,-7.998s-4.002,-7.998 -8.939,-7.998zm5.157,7.43c-0.892,0.918 -2.279,1.222 -3.496,0.873l-4.421,4.549c-0.471,0.484 -1.291,0.534 -1.832,0.113s-0.598,-1.155 -0.128,-1.64l4.427,-4.554c-0.549,-1.026 -0.404,-2.292 0.484,-3.205c0.841,-0.867 2.124,-1.184 3.289,-0.921l-1.694,1.768l0.554,1.442l1.674,0.291l1.698,-1.772c0.46,0.998 0.291,2.186 -0.556,3.056l0.001,0z"/>
 </g>
</svg>