<svg width="1266" height="280" xmlns="http://www.w3.org/2000/svg" preserveAspectRatio="xMidYMid meet">
 <metadata>Created by potrace 1.16, written by Peter Selinger 2001-2019</metadata>

 <g>
  <title>Sfile</title>
  <rect fill="none" id="canvas_background" height="602" width="802" y="-1" x="-1"/>
 </g>
 <g>
  <title>Sfile Logo</title>
  <ellipse ry="133.24024" rx="132.40585" id="svg_16" cy="140.14563" cx="138.31766" stroke-opacity="null" stroke-width="null" stroke="null" fill="#0463b3"/>
  <rect id="svg_15" height="150.99647" width="161.99621" y="56.37694" x="53.99874" stroke-width="null" fill="#ffffff"/>
  <path fill="#0463b3" id="svg_2" d="m116.5,9.4c-17.3,3.4 -31.3,8.4 -44.5,16.1c-28.1,16.4 -49.9,43.6 -59.8,74.6c-8.7,27.2 -8.2,57.2 1.3,84.1c21.5,60.3 83.1,96.6 146.7,86.4c53.9,-8.7 96.8,-50.1 108.5,-104.6c2.5,-12 2.5,-40.1 0,-52c-5.8,-26.8 -18.2,-49.5 -37.3,-68.2c-17.6,-17.3 -37.3,-28.3 -61.6,-34.4c-8.8,-2.2 -13,-2.7 -28.3,-3c-12.4,-0.2 -20.2,0.1 -25,1zm38.5,74.1l0,20.5l15,0c8.3,0 15,0.4 15,0.8c0,0.9 -48.9,59.6 -49.9,59.9c-0.7,0.2 -49.3,-57.8 -49.9,-59.6c-0.3,-0.8 4.1,-1.1 14.7,-1.1l15.1,0l0,-20.5l0,-20.5l20,0l20,0l0,20.5zm-54.2,64.6c2.3,2.9 4.2,5.6 4.2,6c0,0.5 -6.7,0.9 -15,0.9l-15,0l0,20l0,20l60,0l60,0l0,-20l0,-20l-15,0c-8.3,0 -15,-0.4 -15,-0.9c0,-1.1 6.8,-9.3 8.6,-10.4c0.7,-0.4 10.4,-0.6 21.6,-0.5l20.3,0.3l0,31.5l0,31.5l-80.5,0l-80.5,0l-0.3,-30.5c-0.1,-16.8 0,-31 0.3,-31.7c0.3,-1 5.4,-1.3 21.3,-1.3l20.8,0l4.2,5.1z"/>
  <path id="svg_3" d="m446.30001,59c-11.4,2.3 -21.7,10.5 -24.7,19.8c-0.9,2.6 -1.9,9.1 -2.2,14.4l-0.7,9.8l-5.3,0l-5.4,0l0,9.5l0,9.5l5.5,0l5.5,0l0.2,42.7l0.3,42.8l15.5,0l15.5,0l0.3,-42.8l0.2,-42.7l10.5,0l10.5,0l0,-9.5l0,-9.5l-10.5,0l-10.5,0l0,-7c0,-12.2 4,-16.2 16.2,-16.4l6.8,0l0,-10.2c0,-9.7 -0.1,-10.2 -2.2,-10.8c-3.2,-0.8 -20.5,-0.5 -25.5,0.4z"/>
  <path id="svg_4" d="m495.40001,62.4c-5.4,2.4 -7.4,6 -7.4,13.5c0,7.9 2.1,12 7.3,14.4c4.5,2.2 12.3,2.2 16.7,-0.1c10.4,-5.2 10.9,-21 0.8,-27.2c-3.9,-2.4 -12.6,-2.6 -17.4,-0.6z"/>
  <path id="svg_5" d="m1232.10002,62.8c-4.8,2.4 -7.3,6.2 -7.8,11.9c-0.6,6.3 2.7,12.9 7.7,15.5c4.4,2.3 12.4,2.3 17,0c10.4,-5.2 10.9,-21 0.8,-27.2c-4.2,-2.6 -13,-2.7 -17.7,-0.2z"/>
  <path id="svg_6" d="m545.20001,128.2l0.3,66.3l2.5,5c3.6,7.2 9.2,9.8 22.2,10.3c5.4,0.3 11.8,0.1 14.3,-0.2l4.5,-0.7l0,-10.5l0,-10.4l-3.9,0c-2.3,0 -4.8,-0.8 -6.2,-1.9l-2.4,-1.9l-0.3,-61.1l-0.3,-61.1l-15.5,0l-15.5,0l0.3,66.2z"/>
  <path id="svg_7" d="m1092.00002,135l0,73l15.5,0l15.4,0l0.3,-6.8l0.3,-6.7l3.4,5.5c1.8,3 3.9,5.8 4.5,6.2c2.8,1.9 12.9,4.1 20.7,4.6c25.3,1.4 44.6,-13.2 51.6,-39c2.6,-9.7 2.4,-29.2 -0.4,-38.3c-6.1,-19.6 -18.6,-30.7 -37.5,-33.7c-9,-1.3 -18.9,-0.2 -28.2,3.2c-4.9,1.9 -6.2,3 -9.9,8.3l-4.2,6.2l-0.3,-27.8l-0.2,-27.7l-15.5,0l-15.5,0l0,73zm66.8,-11.9c9.2,4.5 14.6,16.1 14.6,31.9c0,21.8 -9.2,34.2 -25.7,34.3c-15.9,0.1 -24.1,-11.2 -24,-33.3c0,-12.3 1.4,-19.2 5.3,-25.3c5.6,-8.9 19.6,-12.5 29.8,-7.6z"/>
  <path id="svg_8" d="m340.30001,100.4c-8.6,1.7 -18.5,6 -23.6,10.5c-2,1.8 -4.9,5.8 -6.4,8.9c-2.3,4.8 -2.8,6.9 -2.7,13.2c0.1,8.9 1.8,13.3 7.3,19.3c5.2,5.6 13.5,9.7 28,13.6c13.8,3.8 18.6,6.2 21.1,10.4c3.2,5.2 2.1,10 -3,13c-3.3,2 -13,2.3 -16.3,0.6c-3.9,-2 -8.6,-7.2 -9.8,-10.6l-1.1,-3.3l-14.9,0l-14.9,0l0,3.2c0,4.9 5.2,14.9 10.1,19.7c8.8,8.4 20.6,12.2 37.9,12.2c29.4,0 46.2,-12.9 44.8,-34.5c-0.5,-8.4 -4.6,-16.6 -10.4,-21c-5.3,-4 -12.8,-7.2 -28.8,-12.1c-14.3,-4.4 -18.6,-7.7 -18.6,-14.1c0.1,-6.4 3.7,-9.4 11.4,-9.4c5.5,0 9.6,3.1 12,9l1.6,4l15,0l15,0l0,-2.6c0,-4.4 -5.7,-14.8 -10.4,-19.2c-10.5,-9.7 -27.2,-13.8 -43.3,-10.8z"/>
  <path id="svg_9" d="m641.30001,100.9c-20.4,5 -34,17.8 -39.9,37.6c-1.3,4.3 -1.8,9.4 -1.9,18c0,10.5 0.3,13.1 2.8,20.5c5.4,16.3 15.5,26.6 31,31.5c14,4.5 32.9,3.4 45.5,-2.7c10.5,-5 19.3,-15 23.1,-26.1l2,-5.7l-15.2,0l-15.2,0l-2.3,5c-3.1,6.9 -8.1,10.1 -16.5,10.7c-11.1,0.9 -18.4,-4 -22.1,-15c-0.9,-2.6 -1.6,-6.1 -1.6,-7.7l0,-3l36.9,0l37,0l0.7,-4.6c1.3,-8.8 -1.1,-22.2 -5.8,-32.1c-6.3,-13.7 -19.4,-23.4 -35.6,-26.8c-9.2,-1.9 -13.9,-1.8 -22.9,0.4zm22.6,23.8c4,3.2 7.6,9.7 8.7,15.6l0.6,3.7l-20.8,-0.2l-20.9,-0.3l0.3,-2.5c0.5,-3.7 4,-11.1 6.5,-13.9c6.3,-6.8 18.6,-7.9 25.6,-2.4z"/>
  <path id="svg_10" d="m829.50001,100.8c-9.4,2.9 -12,4.7 -15.5,10.7c-1.7,3 -3.5,5.7 -4.1,6c-0.5,0.4 -0.9,-2.7 -0.9,-7.5l0,-8.1l-15.2,0.3l-15.3,0.3l-0.3,53.2l-0.2,53.3l15.5,0l15.5,0l0,-27.3c0.1,-33.7 1,-44 4.5,-51.2c2.1,-4.3 3.5,-5.8 7.1,-7.6c8.6,-4.1 17.7,-0.8 21.8,8c2,4.4 2.1,6.4 2.4,41.3l0.4,36.8l15.3,0l15.3,0l0.4,-34.8c0.4,-30.4 0.6,-35.3 2.2,-39.9c4.3,-12 15.2,-16.5 25.3,-10.3c7.1,4.3 8.3,11.9 8.3,54.7l0,30.3l15.5,0l15.5,0l0,-38.8c0,-42.1 -0.5,-47.3 -5.3,-55.5c-4.8,-8.1 -13.1,-12.9 -25.8,-14.8c-6.6,-1.1 -8.2,-0.9 -15.2,1c-10,2.7 -11.6,3.8 -17.8,12.2l-5.1,6.9l-3.2,-5.2c-7.2,-12.1 -26.1,-18.5 -41.1,-14z"/>
  <path id="svg_11" d="m1005.00001,100.6c-14.1,3 -24.9,9.1 -32.1,17.9c-17.1,21.3 -15.3,58.9 3.7,77.9c9.9,9.9 23,14.7 40.4,14.8c17.7,0.1 30.9,-4.8 41.1,-15.2c10.9,-11.2 15.6,-25.3 14.6,-44.4c-0.6,-13.2 -3,-21 -9.1,-30c-7.7,-11.2 -19.1,-18 -35.5,-21.1c-9.2,-1.8 -14.6,-1.8 -23.1,0.1zm21.6,22.9c9.9,5 15.1,17.9 14.1,35c-1.3,20.1 -8.2,30 -21.8,31.3c-6,0.6 -11.2,-1.2 -15.9,-5.4c-12.6,-11.4 -13,-45.3 -0.6,-57.3c6.5,-6.3 15.9,-7.7 24.2,-3.6z"/>
  <path id="svg_12" d="m488.00001,155l0,53l15.5,0l15.5,0l0,-53l0,-53l-15.5,0l-15.5,0l0,53z"/>
  <path id="svg_13" d="m1225.00002,155l0,53l15.5,0l15.5,0l0,-53l0,-53l-15.5,0l-15.5,0l0,53z"/>
  <path fill="#0463b3" id="svg_14" d="m734.50001,175.7c-3.8,0.6 -9.1,4.5 -11,8.3c-2,3.8 -1.9,13.3 0.1,17.6c2.4,4.9 8.7,8.4 15.3,8.4c10.3,0 17.1,-5.9 17.9,-15.5c0.5,-6.7 -2.4,-13.5 -7.1,-16.3c-3.4,-2.1 -10.3,-3.2 -15.2,-2.5z"/>
 </g>
</svg>